<!DOCTYPE svg PUBLIC "-//W3C//DTD SVG 1.1//EN" "http://www.w3.org/Graphics/SVG/1.1/DTD/svg11.dtd">
<!-- Uploaded to: SVG Repo, www.svgrepo.com, Transformed by: SVG Repo Mixer Tools -->
<svg fill="#919191" width="800px" height="800px" viewBox="0 0 24 24" xmlns="http://www.w3.org/2000/svg" transform="rotate(45)" stroke="#919191">
<g id="SVGRepo_bgCarrier" stroke-width="0"/>
<g id="SVGRepo_tracerCarrier" stroke-linecap="round" stroke-linejoin="round"/>
<g id="SVGRepo_iconCarrier">
<path d="M6,7a5.986,5.986,0,0,0,2.128,4.576l.709,8.514a3.174,3.174,0,0,0,6.326,0l.709-8.514A6,6,0,1,0,6,7Zm7.169,12.924a1.173,1.173,0,0,1-2.338,0l-.6-7.191A6.638,6.638,0,0,0,12,13a6.629,6.629,0,0,0,1.769-.267ZM16,7c0,5.218-8,5.188-8,0a4,4,0,0,1,8,0Z"/>
</g>
</svg>